<svg width="14" height="9" viewBox="0 0 14 9" fill="none" xmlns="http://www.w3.org/2000/svg">
<path d="M11.8546 0.36586L6.99347 5.22694L2.13239 0.36586C2.0164 0.249868 1.87869 0.157859 1.72714 0.0950847C1.57559 0.0323104 1.41316 1.22217e-09 1.24912 0C1.08509 -1.22217e-09 0.922656 0.0323104 0.771105 0.0950847C0.619554 0.157859 0.481852 0.249868 0.36586 0.36586C0.249868 0.481852 0.157858 0.619554 0.0950841 0.771105C0.0323098 0.922656 -1.22217e-09 1.08509 0 1.24912C1.22217e-09 1.41316 0.0323098 1.57559 0.0950841 1.72714C0.157858 1.87869 0.249868 2.0164 0.36586 2.13239L6.11647 7.883C6.60509 8.37161 7.39438 8.37161 7.883 7.883L13.6336 2.13239C13.7498 2.01648 13.8419 1.87881 13.9048 1.72724C13.9676 1.57568 14 1.41321 14 1.24912C14 1.08504 13.9676 0.922566 13.9048 0.771003C13.8419 0.619441 13.7498 0.481767 13.6336 0.36586C13.145 -0.110225 12.3432 -0.122754 11.8546 0.36586Z" fill="white"/>
</svg>
