<svg width="18" height="19" viewBox="0 0 18 19" fill="none" xmlns="http://www.w3.org/2000/svg">
<path d="M16.23 12.76L13.69 12.47C13.3914 12.4349 13.0886 12.468 12.8046 12.5667C12.5206 12.6654 12.2626 12.8272 12.05 13.04L10.21 14.88C7.37144 13.4359 5.0641 11.1286 3.62004 8.29L5.47004 6.44C5.90004 6.01 6.11004 5.41 6.04004 4.8L5.75004 2.28C5.69356 1.79209 5.45951 1.34202 5.0925 1.01559C4.7255 0.68916 4.25121 0.509194 3.76004 0.509997H2.03004C0.900041 0.509997 -0.0399593 1.45 0.0300407 2.58C0.560041 11.12 7.39004 17.94 15.92 18.47C17.05 18.54 17.99 17.6 17.99 16.47V14.74C18 13.73 17.24 12.88 16.23 12.76Z" fill="#FAFAFA"/>
</svg>
